<svg width="352" height="92" viewBox="0 0 352 92" fill="none" xmlns="http://www.w3.org/2000/svg">
<path d="M148.736 90L130.016 38.736H142.976L156.032 77.616L169.088 38.736H182.048L163.328 90H148.736ZM210.24 91.152C205.12 91.152 200.672 90.064 196.896 87.888C193.12 85.648 190.208 82.512 188.16 78.48C186.112 74.448 185.088 69.744 185.088 64.368C185.088 58.992 186.112 54.32 188.16 50.352C190.208 46.32 193.088 43.184 196.8 40.944C200.576 38.704 204.96 37.584 209.952 37.584C214.816 37.584 219.072 38.672 222.72 40.848C226.432 43.024 229.28 46.16 231.264 50.256C233.248 54.352 234.24 59.28 234.24 65.04V67.824H197.856C198.112 72.304 199.328 75.696 201.504 78C203.744 80.24 206.688 81.36 210.336 81.36C213.088 81.36 215.36 80.752 217.152 79.536C219.008 78.256 220.288 76.496 220.992 74.256L233.568 75.024C232.16 80.016 229.376 83.952 225.216 86.832C221.12 89.712 216.128 91.152 210.24 91.152ZM197.856 59.568H221.568C221.312 55.408 220.128 52.336 218.016 50.352C215.904 48.304 213.216 47.28 209.952 47.28C206.688 47.28 203.968 48.336 201.792 50.448C199.68 52.56 198.368 55.6 197.856 59.568ZM243.845 90V38.736H255.365L255.845 52.944L254.789 52.752C255.557 47.824 256.997 44.272 259.109 42.096C261.285 39.856 264.229 38.736 267.941 38.736H272.645V49.296H267.845C265.221 49.296 263.045 49.68 261.317 50.448C259.589 51.216 258.277 52.432 257.381 54.096C256.549 55.696 256.133 57.808 256.133 60.432V90H243.845ZM284.846 90V36.72C284.846 32.112 286.126 28.496 288.686 25.872C291.31 23.184 295.31 21.84 300.686 21.84H310.67V31.344H302.99C301.006 31.344 299.534 31.856 298.574 32.88C297.678 33.904 297.23 35.408 297.23 37.392V90H284.846ZM277.55 49.584V40.08H309.998V49.584H277.55ZM338.077 90C332.957 90 329.181 88.816 326.749 86.448C324.381 84.08 323.197 80.368 323.197 75.312V26.736H335.484V74.16C335.484 76.528 335.997 78.192 337.021 79.152C338.045 80.048 339.645 80.496 341.821 80.496H349.021V90H338.077ZM315.133 48.24V38.736H349.021V48.24H315.133Z" fill="currentColor"/>
<path d="M16.0534 85.9091H0V90H58.0742V67.5L12.1198 79.0909L16.0534 85.9091Z" fill="currentColor"/>
<path d="M10.0999 75L6.39658 64.7727L58.0742 50.1136V63L10.0999 75Z" fill="currentColor"/>
<path d="M20.1997 51.6412L15.1498 53.0114V57.5L30.8046 53.0114V48.75L24.913 50.1136V15.3409L26.933 13.125L52.8559 5.11364V16.1932H52.0143V18.0682H52.8559C43 27.5 64 28 54.7076 18.0682H55.3809V16.1932H54.7076V0L24.913 8.69318V2.72727H20.1997V10.2273L15.1498 11.7614V16.7045L20.1997 15.3409V51.6412Z" fill="currentColor"/>
<path d="M58.0742 31.3636H44.6077V48.75L58.0742 44.8295V31.3636Z" fill="currentColor"/>
<path d="M90.2254 23.5227H74.5706V35.625H90.2254V23.5227Z" fill="currentColor"/>
<path d="M98.8103 39.0341H63.2924V44.8295C77.3239 46.983 85.1194 48.6561 98.8103 53.0114V39.0341Z" fill="currentColor"/>
<path d="M109.583 61.7045C93.3425 55.3314 83.1532 52.7275 63.2924 49.6023V90H118V85.9091L100.999 85.5682C105.769 77.3281 107.968 72.3469 109.583 61.7045Z" fill="currentColor"/>
</svg>
